<?xml version="1.0" standalone="no"?>
<!DOCTYPE svg PUBLIC "-//W3C//DTD SVG 20010904//EN"
 "http://www.w3.org/TR/2001/REC-SVG-20010904/DTD/svg10.dtd">
<svg version="1.0" xmlns="http://www.w3.org/2000/svg"
 width="288.000000pt" height="288.000000pt" viewBox="0 0 288.000000 288.000000"
 preserveAspectRatio="xMidYMid meet">
<metadata>
Created by potrace 1.11, written by Peter Selinger 2001-2013
</metadata>
<g transform="translate(0.000000,288.000000) scale(0.100000,-0.100000)"
fill="#000000" stroke="none">
<path d="M1245 2704 c-469 -76 -864 -406 -1013 -849 -46 -136 -64 -237 -67
-380 -10 -429 174 -806 518 -1064 162 -121 381 -211 577 -238 71 -9 289 -9
361 0 77 10 220 50 305 85 336 137 614 435 727 777 28 88 32 103 51 216 14 81
15 291 2 374 -86 557 -516 990 -1071 1081 -75 12 -310 11 -390 -2z m400 -638
c433 -148 591 -657 318 -1029 -77 -104 -217 -196 -360 -235 -104 -29 -261 -25
-364 11 -216 74 -367 229 -434 447 -26 87 -29 242 -5 334 80 313 339 509 660
502 84 -2 121 -8 185 -30z"/>
<path d="M1358 1969 c-267 -42 -465 -284 -452 -553 11 -227 155 -416 373 -486
331 -106 682 139 695 486 13 336 -286 605 -616 553z m147 -428 c42 -24 57 -57
52 -116 -4 -41 -10 -54 -37 -76 -120 -101 -276 64 -165 175 49 49 86 53 150
17z"/>
</g>
</svg>
